<svg xmlns="http://www.w3.org/2000/svg" xmlns:xlink="http://www.w3.org/1999/xlink" width="500" zoomAndPan="magnify" viewBox="0 0 375 374.999991" height="500" preserveAspectRatio="xMidYMid meet" version="1.0"><defs><g/></defs><g fill="#ffffff" fill-opacity="1"><g transform="translate(71.955485, 207.62571)"><g><path d="M 10.59375 0.234375 C 8.65625 0.234375 7.191406 -0.015625 6.203125 -0.515625 C 5.210938 -1.023438 4.578125 -1.738281 4.296875 -2.65625 C 4.023438 -3.570312 3.972656 -4.628906 4.140625 -5.828125 L 5.9375 -18.09375 L 2.390625 -18.09375 L 3.0625 -22.5 L 6.8125 -22.5 L 8.84375 -29.296875 L 13.890625 -29.296875 L 12.890625 -22.53125 L 17.765625 -22.53125 L 17.09375 -18.09375 L 12.234375 -18.09375 L 10.484375 -6.15625 C 10.367188 -5.332031 10.457031 -4.800781 10.75 -4.5625 C 11.050781 -4.332031 11.523438 -4.21875 12.171875 -4.21875 L 15.109375 -4.21875 L 14.515625 -0.3125 C 14.210938 -0.175781 13.753906 -0.0507812 13.140625 0.0625 C 12.535156 0.175781 11.6875 0.234375 10.59375 0.234375 Z M 10.59375 0.234375 "/></g></g></g><g fill="#ffffff" fill-opacity="1"><g transform="translate(90.082948, 207.62571)"><g><path d="M 1.28125 0 L 5.96875 -32.34375 L 12.25 -32.34375 L 10.375 -19.546875 C 11 -20.328125 11.835938 -21.035156 12.890625 -21.671875 C 13.941406 -22.316406 15.332031 -22.640625 17.0625 -22.640625 C 18.457031 -22.640625 19.691406 -22.34375 20.765625 -21.75 C 21.835938 -21.164062 22.644531 -20.34375 23.1875 -19.28125 C 23.726562 -18.226562 23.898438 -16.988281 23.703125 -15.5625 L 21.4375 0 L 15.125 0 L 17.265625 -14.671875 C 17.410156 -15.628906 17.164062 -16.375 16.53125 -16.90625 C 15.894531 -17.445312 15.078125 -17.71875 14.078125 -17.71875 C 13.410156 -17.71875 12.757812 -17.59375 12.125 -17.34375 C 11.488281 -17.101562 10.941406 -16.742188 10.484375 -16.265625 C 10.035156 -15.785156 9.769531 -15.195312 9.6875 -14.5 L 7.578125 0 Z M 1.28125 0 "/></g></g></g><g fill="#ffffff" fill-opacity="1"><g transform="translate(115.696414, 207.62571)"><g><path d="M 10.890625 0.4375 C 8.722656 0.4375 6.882812 -0.03125 5.375 -0.96875 C 3.863281 -1.90625 2.773438 -3.226562 2.109375 -4.9375 C 1.453125 -6.65625 1.300781 -8.671875 1.65625 -10.984375 C 1.976562 -13.234375 2.691406 -15.257812 3.796875 -17.0625 C 4.910156 -18.875 6.335938 -20.304688 8.078125 -21.359375 C 9.816406 -22.410156 11.800781 -22.9375 14.03125 -22.9375 C 16.28125 -22.9375 18.09375 -22.453125 19.46875 -21.484375 C 20.84375 -20.523438 21.789062 -19.1875 22.3125 -17.46875 C 22.832031 -15.75 22.925781 -13.765625 22.59375 -11.515625 L 22.328125 -9.796875 L 7.6875 -9.796875 C 7.5 -8.648438 7.523438 -7.648438 7.765625 -6.796875 C 8.003906 -5.953125 8.429688 -5.300781 9.046875 -4.84375 C 9.671875 -4.382812 10.472656 -4.15625 11.453125 -4.15625 C 12.492188 -4.15625 13.4375 -4.382812 14.28125 -4.84375 C 15.132812 -5.3125 15.800781 -6.078125 16.28125 -7.140625 L 21.921875 -7.140625 C 21.441406 -5.546875 20.617188 -4.179688 19.453125 -3.046875 C 18.296875 -1.910156 16.960938 -1.046875 15.453125 -0.453125 C 13.941406 0.140625 12.421875 0.4375 10.890625 0.4375 Z M 8.203125 -13.578125 L 17.046875 -13.578125 C 17.171875 -14.484375 17.128906 -15.3125 16.921875 -16.0625 C 16.710938 -16.8125 16.3125 -17.40625 15.71875 -17.84375 C 15.132812 -18.28125 14.347656 -18.5 13.359375 -18.5 C 12.429688 -18.5 11.597656 -18.265625 10.859375 -17.796875 C 10.128906 -17.328125 9.53125 -16.710938 9.0625 -15.953125 C 8.601562 -15.203125 8.316406 -14.410156 8.203125 -13.578125 Z M 8.203125 -13.578125 "/></g></g></g><g fill="#ffffff" fill-opacity="1"><g transform="translate(139.960656, 207.62571)"><g/></g></g><g fill="#ffffff" fill-opacity="1"><g transform="translate(149.187604, 207.62571)"><g><path d="M 7.421875 0.4375 C 6.015625 0.4375 4.789062 0.171875 3.75 -0.359375 C 2.71875 -0.898438 1.953125 -1.679688 1.453125 -2.703125 C 0.960938 -3.734375 0.8125 -4.976562 1 -6.4375 C 1.375 -8.90625 2.554688 -10.78125 4.546875 -12.0625 C 6.535156 -13.351562 9.46875 -14.019531 13.34375 -14.0625 L 16.046875 -14.109375 L 16.234375 -15.453125 C 16.398438 -16.515625 16.203125 -17.316406 15.640625 -17.859375 C 15.078125 -18.398438 14.242188 -18.664062 13.140625 -18.65625 C 12.253906 -18.632812 11.367188 -18.40625 10.484375 -17.96875 C 9.597656 -17.539062 8.925781 -16.816406 8.46875 -15.796875 L 3.265625 -15.796875 C 3.585938 -17.347656 4.25 -18.65625 5.25 -19.71875 C 6.257812 -20.78125 7.523438 -21.582031 9.046875 -22.125 C 10.578125 -22.664062 12.253906 -22.9375 14.078125 -22.9375 C 16.316406 -22.9375 18.070312 -22.640625 19.34375 -22.046875 C 20.613281 -21.453125 21.472656 -20.617188 21.921875 -19.546875 C 22.378906 -18.484375 22.507812 -17.242188 22.3125 -15.828125 L 19.953125 0 L 14.71875 0 L 14.75 -3.8125 C 13.75 -2.1875 12.65625 -1.070312 11.46875 -0.46875 C 10.28125 0.132812 8.929688 0.4375 7.421875 0.4375 Z M 10.140625 -3.75 C 10.691406 -3.75 11.238281 -3.851562 11.78125 -4.0625 C 12.332031 -4.269531 12.835938 -4.550781 13.296875 -4.90625 C 13.765625 -5.257812 14.15625 -5.660156 14.46875 -6.109375 C 14.78125 -6.566406 14.976562 -7.035156 15.0625 -7.515625 L 15.546875 -10.84375 L 13.359375 -10.796875 C 12.359375 -10.785156 11.40625 -10.660156 10.5 -10.421875 C 9.59375 -10.179688 8.828125 -9.789062 8.203125 -9.25 C 7.578125 -8.707031 7.191406 -7.984375 7.046875 -7.078125 C 6.921875 -6.023438 7.15625 -5.207031 7.75 -4.625 C 8.34375 -4.039062 9.140625 -3.75 10.140625 -3.75 Z M 10.140625 -3.75 "/></g></g></g><g fill="#ffffff" fill-opacity="1"><g transform="translate(173.821799, 207.62571)"><g><path d="M 10.578125 7.4375 C 6.578125 7.4375 3.601562 6.890625 1.65625 5.796875 C -0.289062 4.710938 -1.140625 3.3125 -0.890625 1.59375 C -0.785156 0.863281 -0.507812 0.257812 -0.0625 -0.21875 C 0.375 -0.707031 0.875 -1.097656 1.4375 -1.390625 C 2 -1.691406 2.515625 -1.925781 2.984375 -2.09375 C 3.460938 -2.257812 3.773438 -2.378906 3.921875 -2.453125 C 3.753906 -2.578125 3.472656 -2.769531 3.078125 -3.03125 C 2.679688 -3.289062 2.328125 -3.660156 2.015625 -4.140625 C 1.703125 -4.617188 1.597656 -5.238281 1.703125 -6 C 1.796875 -6.71875 2.242188 -7.390625 3.046875 -8.015625 C 3.847656 -8.648438 5.0625 -9.113281 6.6875 -9.40625 C 5.375 -10.070312 4.410156 -11.023438 3.796875 -12.265625 C 3.191406 -13.503906 2.984375 -14.789062 3.171875 -16.125 C 3.359375 -17.457031 3.929688 -18.628906 4.890625 -19.640625 C 5.847656 -20.660156 7.128906 -21.453125 8.734375 -22.015625 C 10.335938 -22.578125 12.191406 -22.859375 14.296875 -22.859375 C 15.878906 -22.859375 17.128906 -22.679688 18.046875 -22.328125 C 18.972656 -21.984375 19.773438 -21.5625 20.453125 -21.0625 C 20.847656 -21.207031 21.335938 -21.394531 21.921875 -21.625 C 22.515625 -21.851562 23.140625 -22.097656 23.796875 -22.359375 C 24.460938 -22.617188 25.117188 -22.875 25.765625 -23.125 C 26.410156 -23.375 26.976562 -23.597656 27.46875 -23.796875 L 26.875 -18.828125 L 22.921875 -18.015625 C 23.140625 -17.128906 23.195312 -16.289062 23.09375 -15.5 C 22.914062 -14.25 22.390625 -13.078125 21.515625 -11.984375 C 20.648438 -10.898438 19.445312 -10.023438 17.90625 -9.359375 C 16.375 -8.703125 14.535156 -8.375 12.390625 -8.375 C 12.054688 -8.375 11.660156 -8.378906 11.203125 -8.390625 C 10.742188 -8.410156 10.40625 -8.425781 10.1875 -8.4375 C 9.3125 -8.457031 8.6875 -8.410156 8.3125 -8.296875 C 7.9375 -8.179688 7.75 -7.992188 7.75 -7.734375 C 7.78125 -7.347656 8.082031 -7.070312 8.65625 -6.90625 C 9.238281 -6.738281 10.0625 -6.613281 11.125 -6.53125 C 11.644531 -6.488281 12.304688 -6.445312 13.109375 -6.40625 C 13.921875 -6.375 14.757812 -6.320312 15.625 -6.25 C 18.382812 -6.070312 20.375 -5.363281 21.59375 -4.125 C 22.8125 -2.894531 23.289062 -1.351562 23.03125 0.5 C 22.75 2.53125 21.570312 4.191406 19.5 5.484375 C 17.425781 6.785156 14.453125 7.4375 10.578125 7.4375 Z M 11.5625 3.890625 C 13.34375 3.890625 14.65625 3.640625 15.5 3.140625 C 16.34375 2.640625 16.820312 1.941406 16.9375 1.046875 C 17.007812 0.429688 16.8125 -0.0507812 16.34375 -0.40625 C 15.882812 -0.769531 15.125 -0.988281 14.0625 -1.0625 L 9.125 -1.390625 C 8.457031 -1.429688 7.84375 -1.328125 7.28125 -1.078125 C 6.71875 -0.828125 6.257812 -0.484375 5.90625 -0.046875 C 5.5625 0.378906 5.359375 0.851562 5.296875 1.375 C 5.171875 2.226562 5.613281 2.859375 6.625 3.265625 C 7.632812 3.679688 9.28125 3.890625 11.5625 3.890625 Z M 12.53125 -11.921875 C 13.738281 -11.921875 14.773438 -12.28125 15.640625 -13 C 16.503906 -13.71875 17.015625 -14.695312 17.171875 -15.9375 C 17.328125 -17.019531 17.125 -17.882812 16.5625 -18.53125 C 16.007812 -19.175781 15.191406 -19.5 14.109375 -19.5 C 12.890625 -19.5 11.835938 -19.109375 10.953125 -18.328125 C 10.078125 -17.546875 9.550781 -16.53125 9.375 -15.28125 C 9.226562 -14.25 9.429688 -13.429688 9.984375 -12.828125 C 10.535156 -12.222656 11.382812 -11.921875 12.53125 -11.921875 Z M 12.53125 -11.921875 "/></g></g></g><g fill="#ffffff" fill-opacity="1"><g transform="translate(200.545113, 207.62571)"><g><path d="M 10.890625 0.4375 C 8.722656 0.4375 6.882812 -0.03125 5.375 -0.96875 C 3.863281 -1.90625 2.773438 -3.226562 2.109375 -4.9375 C 1.453125 -6.65625 1.300781 -8.671875 1.65625 -10.984375 C 1.976562 -13.234375 2.691406 -15.257812 3.796875 -17.0625 C 4.910156 -18.875 6.335938 -20.304688 8.078125 -21.359375 C 9.816406 -22.410156 11.800781 -22.9375 14.03125 -22.9375 C 16.28125 -22.9375 18.09375 -22.453125 19.46875 -21.484375 C 20.84375 -20.523438 21.789062 -19.1875 22.3125 -17.46875 C 22.832031 -15.75 22.925781 -13.765625 22.59375 -11.515625 L 22.328125 -9.796875 L 7.6875 -9.796875 C 7.5 -8.648438 7.523438 -7.648438 7.765625 -6.796875 C 8.003906 -5.953125 8.429688 -5.300781 9.046875 -4.84375 C 9.671875 -4.382812 10.472656 -4.15625 11.453125 -4.15625 C 12.492188 -4.15625 13.4375 -4.382812 14.28125 -4.84375 C 15.132812 -5.3125 15.800781 -6.078125 16.28125 -7.140625 L 21.921875 -7.140625 C 21.441406 -5.546875 20.617188 -4.179688 19.453125 -3.046875 C 18.296875 -1.910156 16.960938 -1.046875 15.453125 -0.453125 C 13.941406 0.140625 12.421875 0.4375 10.890625 0.4375 Z M 8.203125 -13.578125 L 17.046875 -13.578125 C 17.171875 -14.484375 17.128906 -15.3125 16.921875 -16.0625 C 16.710938 -16.8125 16.3125 -17.40625 15.71875 -17.84375 C 15.132812 -18.28125 14.347656 -18.5 13.359375 -18.5 C 12.429688 -18.5 11.597656 -18.265625 10.859375 -17.796875 C 10.128906 -17.328125 9.53125 -16.710938 9.0625 -15.953125 C 8.601562 -15.203125 8.316406 -14.410156 8.203125 -13.578125 Z M 8.203125 -13.578125 "/></g></g></g><g fill="#ffffff" fill-opacity="1"><g transform="translate(224.809355, 207.62571)"><g><path d="M 1.171875 0 L 4.546875 -22.5 L 10.6875 -22.5 L 10.265625 -19.609375 C 10.796875 -20.160156 11.359375 -20.664062 11.953125 -21.125 C 12.554688 -21.59375 13.269531 -21.972656 14.09375 -22.265625 C 14.914062 -22.554688 15.90625 -22.703125 17.0625 -22.703125 C 18.394531 -22.703125 19.59375 -22.382812 20.65625 -21.75 C 21.726562 -21.125 22.539062 -20.234375 23.09375 -19.078125 C 23.644531 -17.921875 23.796875 -16.5625 23.546875 -15 L 21.328125 0 L 15.046875 0 L 17.15625 -14.234375 C 17.320312 -15.347656 17.097656 -16.207031 16.484375 -16.8125 C 15.867188 -17.414062 15.078125 -17.71875 14.109375 -17.71875 C 13.453125 -17.71875 12.789062 -17.597656 12.125 -17.359375 C 11.46875 -17.117188 10.910156 -16.765625 10.453125 -16.296875 C 9.992188 -15.835938 9.722656 -15.257812 9.640625 -14.5625 L 7.46875 0 Z M 1.171875 0 "/></g></g></g><g fill="#ffffff" fill-opacity="1"><g transform="translate(250.314011, 207.62571)"><g><path d="M 10.375 0.4375 C 8.34375 0.4375 6.597656 -0.0234375 5.140625 -0.953125 C 3.679688 -1.878906 2.625 -3.207031 1.96875 -4.9375 C 1.3125 -6.675781 1.164062 -8.753906 1.53125 -11.171875 C 1.863281 -13.484375 2.597656 -15.523438 3.734375 -17.296875 C 4.867188 -19.066406 6.304688 -20.445312 8.046875 -21.4375 C 9.796875 -22.4375 11.726562 -22.9375 13.84375 -22.9375 C 15.6875 -22.9375 17.222656 -22.550781 18.453125 -21.78125 C 19.691406 -21.019531 20.59375 -19.984375 21.15625 -18.671875 C 21.71875 -17.367188 21.9375 -15.910156 21.8125 -14.296875 L 16.578125 -14.296875 C 16.578125 -14.890625 16.46875 -15.476562 16.25 -16.0625 C 16.039062 -16.65625 15.6875 -17.144531 15.1875 -17.53125 C 14.6875 -17.914062 14.015625 -18.109375 13.171875 -18.109375 C 11.742188 -18.109375 10.503906 -17.535156 9.453125 -16.390625 C 8.398438 -15.253906 7.703125 -13.523438 7.359375 -11.203125 C 7.035156 -9.015625 7.222656 -7.273438 7.921875 -5.984375 C 8.617188 -4.703125 9.722656 -4.0625 11.234375 -4.0625 C 12.054688 -4.0625 12.773438 -4.269531 13.390625 -4.6875 C 14.015625 -5.113281 14.515625 -5.617188 14.890625 -6.203125 C 15.273438 -6.796875 15.539062 -7.347656 15.6875 -7.859375 L 20.78125 -7.859375 C 20.476562 -6.304688 19.84375 -4.898438 18.875 -3.640625 C 17.914062 -2.390625 16.707031 -1.394531 15.25 -0.65625 C 13.800781 0.0703125 12.175781 0.4375 10.375 0.4375 Z M 10.375 0.4375 "/></g></g></g><g fill="#ffffff" fill-opacity="1"><g transform="translate(273.381373, 207.62571)"><g><path d="M 3.3125 7.1875 C 1.8125 7.1875 0.765625 7.054688 0.171875 6.796875 C -0.410156 6.546875 -0.703125 6.421875 -0.703125 6.421875 L -0.109375 2.375 L 2.0625 2.453125 C 3.332031 2.523438 4.289062 2.425781 4.9375 2.15625 C 5.59375 1.894531 6.050781 1.570312 6.3125 1.1875 C 6.582031 0.8125 6.78125 0.519531 6.90625 0.3125 L 7.484375 -0.9375 L 2.15625 -22.5 L 8.375 -22.5 L 11.390625 -7.828125 L 18.78125 -22.5 L 24.921875 -22.5 L 12.78125 0.125 C 11.71875 2.039062 10.675781 3.503906 9.65625 4.515625 C 8.644531 5.535156 7.617188 6.234375 6.578125 6.609375 C 5.546875 6.992188 4.457031 7.1875 3.3125 7.1875 Z M 3.3125 7.1875 "/></g></g></g></svg>